HIERARCHY
ROOT Hips
{
  OFFSET 5.80788e-005 67.184 3.4734
  CHANNELS 6 Xposition Yposition Zposition Zrotation Xrotation Yrotation
  JOINT Chest
  {
    OFFSET 0 8.7983 -4.7612
    CHANNELS 6 Xposition Yposition Zposition Zrotation Xrotation Yrotation
    JOINT Chest2
    {
      OFFSET 0 8.0291 0.4195
      CHANNELS 6 Xposition Yposition Zposition Zrotation Xrotation Yrotation
      JOINT Chest3
      {
        OFFSET 0 9.9351 -2.2114
        CHANNELS 6 Xposition Yposition Zposition Zrotation Xrotation Yrotation
        JOINT Neck
        {
          OFFSET 0 22.3885 -0.4656
          CHANNELS 6 Xposition Yposition Zposition Zrotation Xrotation Yrotation
          JOINT Head
          {
            OFFSET -0.0001 12.643 3.4389
            CHANNELS 6 Xposition Yposition Zposition Zrotation Xrotation Yrotation
            End Site
            {
              OFFSET 0.0001 17.6655 0.5274
            }
          }
        }
        JOINT LeftCollar
        {
          OFFSET 2.2603 21.606 7.4023
          CHANNELS 6 Xposition Yposition Zposition Zrotation Xrotation Yrotation
          JOINT LeftShoulder
          {
            OFFSET 13.5163 -1.1332 -5.0146
            CHANNELS 6 Xposition Yposition Zposition Zrotation Xrotation Yrotation
            JOINT LeftElbow
            {
              OFFSET -0.0995 -28.05 -0.2431
              CHANNELS 6 Xposition Yposition Zposition Zrotation Xrotation Yrotation
              JOINT LeftWrist
              {
                OFFSET 0.0679 -23.3996 -0.1402
                CHANNELS 6 Xposition Yposition Zposition Zrotation Xrotation Yrotation
                JOINT LeftFinger1
                {
                  OFFSET 0.7932 -9.069 2.5189
                  CHANNELS 6 Xposition Yposition Zposition Zrotation Xrotation Yrotation
                  JOINT LeftFinger11
                  {
                    OFFSET -0.8272 -3.3923 0.5977
                    CHANNELS 6 Xposition Yposition Zposition Zrotation Xrotation Yrotation
                    JOINT LeftFinger12
                    {
                      OFFSET -0.5649 -2.3158 0.4082
                      CHANNELS 6 Xposition Yposition Zposition Zrotation Xrotation Yrotation
                      End Site
                      {
                        OFFSET -0.4919 -1.6479 0.2673
                      }
                    }
                  }
                }
                JOINT LeftFinger2
                {
                  OFFSET 0.9159 -9.2044 0.2193
                  CHANNELS 6 Xposition Yposition Zposition Zrotation Xrotation Yrotation
                  JOINT LeftFinger21
                  {
                    OFFSET 0.0117 -4.1944 -0.0248
                    CHANNELS 6 Xposition Yposition Zposition Zrotation Xrotation Yrotation
                    JOINT LeftFinger22
                    {
                      OFFSET 0.0071 -2.3249 -0.0142
                      CHANNELS 6 Xposition Yposition Zposition Zrotation Xrotation Yrotation
                      End Site
                      {
                        OFFSET -0.1475 -2.0882 0.0028
                      }
                    }
                  }
                }
                JOINT LeftFinger3
                {
                  OFFSET 0.6113 -8.7231 -2.0637
                  CHANNELS 6 Xposition Yposition Zposition Zrotation Xrotation Yrotation
                  JOINT LeftFinger31
                  {
                    OFFSET -0.1927 -3.8059 -0.2383
                    CHANNELS 6 Xposition Yposition Zposition Zrotation Xrotation Yrotation
                    JOINT LeftFinger32
                    {
                      OFFSET -0.1091 -2.1688 -0.1362
                      CHANNELS 6 Xposition Yposition Zposition Zrotation Xrotation Yrotation
                      End Site
                      {
                        OFFSET -0.2358 -1.9176 -0.0906
                      }
                    }
                  }
                }
                JOINT LeftFinger4
                {
                  OFFSET -0.6151 -8.0947 -3.5641
                  CHANNELS 6 Xposition Yposition Zposition Zrotation Xrotation Yrotation
                  JOINT LeftFinger41
                  {
                    OFFSET -0.4882 -2.341 -0.6462
                    CHANNELS 6 Xposition Yposition Zposition Zrotation Xrotation Yrotation
                    JOINT LeftFinger42
                    {
                      OFFSET -0.3575 -1.7167 -0.4742
                      CHANNELS 6 Xposition Yposition Zposition Zrotation Xrotation Yrotation
                      End Site
                      {
                        OFFSET -0.4187 -1.5237 -0.3496
                      }
                    }
                  }
                }
                JOINT LeftFinger0
                {
                  OFFSET -1.42 -1.8761 1.4223
                  CHANNELS 6 Xposition Yposition Zposition Zrotation Xrotation Yrotation
                  JOINT LeftFinger01
                  {
                    OFFSET -1.1471 -3.4929 2.6334
                    CHANNELS 6 Xposition Yposition Zposition Zrotation Xrotation Yrotation
                    JOINT LeftFinger02
                    {
                      OFFSET -0.823 -2.3 1.6571
                      CHANNELS 6 Xposition Yposition Zposition Zrotation Xrotation Yrotation
                      End Site
                      {
                        OFFSET -0.5822 -1.6914 1.1582
                      }
                    }
                  }
                }
              }
            }
          }
        }
        JOINT RightCollar
        {
          OFFSET -2.2603 21.606 7.4023
          CHANNELS 6 Xposition Yposition Zposition Zrotation Xrotation Yrotation
          JOINT RightShoulder
          {
            OFFSET -13.5187 -1.1334 -5.0155
            CHANNELS 6 Xposition Yposition Zposition Zrotation Xrotation Yrotation
            JOINT RightElbow
            {
              OFFSET 0.0994 -28.0499 -0.2431
              CHANNELS 6 Xposition Yposition Zposition Zrotation Xrotation Yrotation
              JOINT RightWrist
              {
                OFFSET -0.0679 -23.3996 -0.1402
                CHANNELS 6 Xposition Yposition Zposition Zrotation Xrotation Yrotation
                JOINT RightFinger1
                {
                  OFFSET -0.7932 -9.0691 2.5189
                  CHANNELS 6 Xposition Yposition Zposition Zrotation Xrotation Yrotation
                  JOINT RightFinger11
                  {
                    OFFSET 0.8272 -3.3923 0.5977
                    CHANNELS 6 Xposition Yposition Zposition Zrotation Xrotation Yrotation
                    JOINT RightFinger12
                    {
                      OFFSET 0.565 -2.3158 0.4082
                      CHANNELS 6 Xposition Yposition Zposition Zrotation Xrotation Yrotation
                      End Site
                      {
                        OFFSET 0.4919 -1.6479 0.2673
                      }
                    }
                  }
                }
                JOINT RightFinger2
                {
                  OFFSET -0.916 -9.2044 0.2193
                  CHANNELS 6 Xposition Yposition Zposition Zrotation Xrotation Yrotation
                  JOINT RightFinger21
                  {
                    OFFSET -0.0117 -4.1944 -0.0248
                    CHANNELS 6 Xposition Yposition Zposition Zrotation Xrotation Yrotation
                    JOINT RightFinger22
                    {
                      OFFSET -0.0071 -2.3249 -0.0142
                      CHANNELS 6 Xposition Yposition Zposition Zrotation Xrotation Yrotation
                      End Site
                      {
                        OFFSET 0.1475 -2.0882 0.0028
                      }
                    }
                  }
                }
                JOINT RightFinger3
                {
                  OFFSET -0.6113 -8.7231 -2.0637
                  CHANNELS 6 Xposition Yposition Zposition Zrotation Xrotation Yrotation
                  JOINT RightFinger31
                  {
                    OFFSET 0.1927 -3.8059 -0.2383
                    CHANNELS 6 Xposition Yposition Zposition Zrotation Xrotation Yrotation
                    JOINT RightFinger32
                    {
                      OFFSET 0.1091 -2.1688 -0.1362
                      CHANNELS 6 Xposition Yposition Zposition Zrotation Xrotation Yrotation
                      End Site
                      {
                        OFFSET 0.2358 -1.9176 -0.0906
                      }
                    }
                  }
                }
                JOINT RightFinger4
                {
                  OFFSET 0.6151 -8.0947 -3.564
                  CHANNELS 6 Xposition Yposition Zposition Zrotation Xrotation Yrotation
                  JOINT RightFinger41
                  {
                    OFFSET 0.4882 -2.341 -0.6462
                    CHANNELS 6 Xposition Yposition Zposition Zrotation Xrotation Yrotation
                    JOINT RightFinger42
                    {
                      OFFSET 0.3574 -1.7166 -0.4742
                      CHANNELS 6 Xposition Yposition Zposition Zrotation Xrotation Yrotation
                      End Site
                      {
                        OFFSET 0.4187 -1.5237 -0.3496
                      }
                    }
                  }
                }
                JOINT RightFinger0
                {
                  OFFSET 1.4199 -1.8761 1.4221
                  CHANNELS 6 Xposition Yposition Zposition Zrotation Xrotation Yrotation
                  JOINT RightFinger01
                  {
                    OFFSET 1.1472 -3.4929 2.6336
                    CHANNELS 6 Xposition Yposition Zposition Zrotation Xrotation Yrotation
                    JOINT RightFinger02
                    {
                      OFFSET 0.8229 -2.3 1.6571
                      CHANNELS 6 Xposition Yposition Zposition Zrotation Xrotation Yrotation
                      End Site
                      {
                        OFFSET 0.5822 -1.6914 1.1582
                      }
                    }
                  }
                }
              }
            }
          }
        }
      }
    }
  }
  JOINT RightHip
  {
    OFFSET -9.412 3.9771 -0.7758
    CHANNELS 6 Xposition Yposition Zposition Zrotation Xrotation Yrotation
    JOINT RightKnee
    {
      OFFSET -0.7531 -40.938 0
      CHANNELS 6 Xposition Yposition Zposition Zrotation Xrotation Yrotation
      JOINT RightAnkle
      {
        OFFSET 0 -40.1986 0
        CHANNELS 6 Xposition Yposition Zposition Zrotation Xrotation Yrotation
        JOINT RightToe
        {
          OFFSET 0 -4.4182 9.239
          CHANNELS 6 Xposition Yposition Zposition Zrotation Xrotation Yrotation
          End Site
          {
            OFFSET 0 0 6.1981
          }
        }
      }
    }
  }
  JOINT LeftHip
  {
    OFFSET 9.4119 3.9773 -0.7758
    CHANNELS 6 Xposition Yposition Zposition Zrotation Xrotation Yrotation
    JOINT LeftKnee
    {
      OFFSET 0.7532 -40.9383 0
      CHANNELS 6 Xposition Yposition Zposition Zrotation Xrotation Yrotation
      JOINT LeftAnkle
      {
        OFFSET 0 -40.1986 0
        CHANNELS 6 Xposition Yposition Zposition Zrotation Xrotation Yrotation
        JOINT LeftToe
        {
          OFFSET 0 -4.4182 9.239
          CHANNELS 6 Xposition Yposition Zposition Zrotation Xrotation Yrotation
          End Site
          {
            OFFSET 0 0 6.1981
          }
        }
      }
    }
  }
}
MOTION
Frames:	4
Frame Time:	0.0333333
15.8972 -1.23682 19.1996 -180 -64.9956 -180 0 8.7983 -4.7612 0 20.7998 -0 0 8.0291 0.4195 0 41.5997 -0 0 9.9351 -2.2114 0 41.5994 -0 0 22.3885 -0.4656 0 30.9973 -0 -0.0001 12.643 3.4389 -0 -66.0238 -0 2.2603 21.606 7.4023 -8.00298e-008 -0.00183968 -12.5014 13.5163 -1.1332 -5.0146 10.4372 9.20211 22.8231 -0.0995 -28.05 -0.2431 -52.0661 -75.1824 -44.332 0.0679 -23.3996 -0.1402 24.6582 -4.16382 1.68521 0.7932 -9.069 2.5189 -3.18055e-015 1.98785e-016 1.49089e-015 -0.8272 -3.3923 0.5977 -3.18055e-015 5.46658e-016 1.71452e-015 -0.5649 -2.3158 0.4082 -3.18055e-015 7.45443e-016 9.19379e-016 0.9159 -9.2044 0.2193 -3.18055e-015 1.98785e-016 1.49089e-015 0.0117 -4.1944 -0.0248 -0.0128827 0.0023346 8.0233e-005 0.0071 -2.3249 -0.0142 1.12292e-007 -6.32874e-006 6.36847e-006 0.6113 -8.7231 -2.0637 -3.18055e-015 1.98785e-016 1.49089e-015 -0.1927 -3.8059 -0.2383 -0.0160274 0.00298512 0.000855616 -0.1091 -2.1688 -0.1362 8.18987e-034 9.93923e-017 -4.72114e-016 -0.6151 -8.0947 -3.5641 -3.18055e-015 1.98785e-016 1.49089e-015 -0.4882 -2.341 -0.6462 -0.0125943 0.00311484 0.00283069 -0.3575 -1.7167 -0.4742 3.18055e-015 3.97569e-016 1.63997e-015 -1.42 -1.8761 1.4223 -3.18055e-015 1.98785e-016 1.49089e-015 -1.1471 -3.4929 2.6334 -3.18055e-015 5.46658e-016 1.71452e-015 -0.823 -2.3 1.6571 -3.18055e-015 7.45443e-016 9.19379e-016 -2.2603 21.606 7.4023 5.44361 2.71886 24.737 -13.5187 -1.1334 -5.0155 -25.6863 -50.6423 8.26277 0.0994 -28.0499 -0.2431 5.9256 -4.96924 1.9012 -0.0679 -23.3996 -0.1402 28.922 20.1053 -5.25887 -0.7932 -9.0691 2.5189 -4.41391e-031 7.95139e-015 3.18055e-015 0.8272 -3.3923 0.5977 -3.18055e-015 4.77083e-015 -0 0.565 -2.3158 0.4082 4.68484e-007 9.41629e-006 -1.25138e-005 -0.916 -9.2044 0.2193 -4.41391e-031 7.95139e-015 3.18055e-015 -0.0117 -4.1944 -0.0248 0.0129831 0.00231141 -8.81434e-005 -0.0071 -2.3249 -0.0142 -7.11625e-007 7.65534e-007 4.45964e-007 -0.6113 -8.7231 -2.0637 -4.41391e-031 7.95139e-015 3.18055e-015 0.1927 -3.8059 -0.2383 0.016312 0.0030331 -0.000886149 0.1091 -2.1688 -0.1362 3.18055e-015 6.36111e-015 3.18055e-015 0.6151 -8.0947 -3.564 -4.41391e-031 7.95139e-015 3.18055e-015 0.4882 -2.341 -0.6462 0.0145628 0.00368628 -0.00325893 0.3574 -1.7166 -0.4742 -2.64496e-006 -5.48918e-006 -3.9804e-006 1.4199 -1.8761 1.4221 -4.41391e-031 7.95139e-015 3.18055e-015 1.1472 -3.4929 2.6336 -3.18055e-015 4.77083e-015 -0 0.8229 -2.3 1.6571 4.68484e-007 9.41629e-006 -1.25138e-005 -9.412 3.9771 -0.7758 -55.597 -32.1708 -20.482 -0.7531 -40.938 -1.77636e-015 179.941 46.3792 175.274 0 -40.1986 0 -2.10389 13.0735 -2.93849 3.55271e-015 -4.4182 9.239 9.70355e-007 -1.59161e-007 2.56586e-006 9.4119 3.9773 -0.7758 45.8562 -31.9728 10.9501 0.7532 -40.9383 3.55271e-015 -179.957 43.7363 -175.21 -7.10543e-015 -40.1986 0 1.99378 -4.05271 3.30711 -3.55271e-015 -4.4182 9.239 -1.76556e-031 3.18055e-015 3.18055e-015 
15.8938 -1.23404 19.7439 -180 -64.9956 -180 0 8.7983 -4.7612 0 20.7998 -0 0 8.0291 0.4195 0 41.5997 -0 0 9.9351 -2.2114 0 41.5994 -0 0 22.3885 -0.4656 0 30.9973 -0 -0.0001 12.643 3.4389 -0 -65.3064 -0 2.2603 21.606 7.4023 -8.00298e-008 -0.00183968 -12.5014 13.5163 -1.1332 -5.0146 10.4372 9.20211 22.8231 -0.0995 -28.05 -0.2431 -52.0661 -75.1824 -44.332 0.0679 -23.3996 -0.1402 24.6582 -4.16382 1.68521 0.7932 -9.069 2.5189 -3.18055e-015 1.98785e-016 1.49089e-015 -0.8272 -3.3923 0.5977 -3.18055e-015 5.46658e-016 1.71452e-015 -0.5649 -2.3158 0.4082 -3.18055e-015 7.45443e-016 9.19379e-016 0.9159 -9.2044 0.2193 -3.18055e-015 1.98785e-016 1.49089e-015 0.0117 -4.1944 -0.0248 -0.0128827 0.0023346 8.0233e-005 0.0071 -2.3249 -0.0142 1.12292e-007 -6.32874e-006 6.36847e-006 0.6113 -8.7231 -2.0637 -3.18055e-015 1.98785e-016 1.49089e-015 -0.1927 -3.8059 -0.2383 -0.0160351 0.00298325 0.000854713 -0.1091 -2.1688 -0.1362 4.63105e-006 1.32859e-006 1.73492e-006 -0.6151 -8.0947 -3.5641 -3.18055e-015 1.98785e-016 1.49089e-015 -0.4882 -2.341 -0.6462 -0.0125973 0.00311449 0.00283578 -0.3575 -1.7167 -0.4742 -6.36111e-015 -4.96962e-017 -1.04362e-015 -1.42 -1.8761 1.4223 -3.18055e-015 1.98785e-016 1.49089e-015 -1.1471 -3.4929 2.6334 -3.18055e-015 5.46658e-016 1.71452e-015 -0.823 -2.3 1.6571 -3.18055e-015 7.45443e-016 9.19379e-016 -2.2603 21.606 7.4023 5.83169 2.89724 24.7723 -13.5187 -1.1334 -5.0155 -25.5383 -50.1804 8.38221 0.0994 -28.0499 -0.2431 5.92555 -4.96932 1.90124 -0.0679 -23.3996 -0.1402 30.5167 21.4453 -3.86529 -0.7932 -9.0691 2.5189 -8.82781e-032 1.59028e-015 3.18055e-015 0.8272 -3.3923 0.5977 -0 0 6.36111e-015 0.565 -2.3158 0.4082 -0 0 3.18055e-015 -0.916 -9.2044 0.2193 -8.82781e-032 1.59028e-015 3.18055e-015 -0.0117 -4.1944 -0.0248 0.0129472 0.00230063 -7.80607e-005 -0.0071 -2.3249 -0.0142 -3.18055e-015 6.36111e-015 3.18055e-015 -0.6113 -8.7231 -2.0637 -8.82781e-032 1.59028e-015 3.18055e-015 0.1927 -3.8059 -0.2383 0.0163392 0.00301253 -0.000869168 0.1091 -2.1688 -0.1362 -3.18055e-015 6.36111e-015 3.18055e-015 0.6151 -8.0947 -3.564 -8.82781e-032 1.59028e-015 3.18055e-015 0.4882 -2.341 -0.6462 0.0146247 0.00368396 -0.00327203 0.3574 -1.7166 -0.4742 -5.47647e-006 9.70325e-006 3.26567e-006 1.4199 -1.8761 1.4221 -8.82781e-032 1.59028e-015 3.18055e-015 1.1472 -3.4929 2.6336 -0 0 6.36111e-015 0.8229 -2.3 1.6571 -0 0 3.18055e-015 -9.412 3.9771 -0.7758 -56.994 -32.3231 -22.4374 -0.7531 -40.938 5.32907e-015 179.939 45.2677 175.162 -3.55271e-015 -40.1986 0 -2.06748 12.9927 -3.01976 -1.77636e-015 -4.4182 9.239 3.18055e-015 -1.78289e-006 -0 9.4119 3.9773 -0.7758 46.7336 -31.9509 12.1552 0.7532 -40.9383 0 -179.955 42.2733 -175.035 0 -40.1986 0 1.97652 -4.191 3.42612 3.55271e-015 -4.4182 9.239 1.87825e-006 7.83038e-007 -2.70561e-006 
15.8902 -1.23067 20.2882 -180 -64.9956 -180 0 8.7983 -4.7612 0 20.7998 -0 0 8.0291 0.4195 0 41.5997 -0 0 9.9351 -2.2114 0 41.5994 -0 0 22.3885 -0.4656 0 30.9973 -0 -0.0001 12.643 3.4389 -0 -64.5879 -0 2.2603 21.606 7.4023 -8.00298e-008 -0.00183968 -12.5014 13.5163 -1.1332 -5.0146 10.4372 9.20211 22.8231 -0.0995 -28.05 -0.2431 -52.0661 -75.1824 -44.332 0.0679 -23.3996 -0.1402 24.6582 -4.16382 1.68521 0.7932 -9.069 2.5189 -3.18055e-015 1.98785e-016 1.49089e-015 -0.8272 -3.3923 0.5977 -3.18055e-015 5.46658e-016 1.71452e-015 -0.5649 -2.3158 0.4082 -3.18055e-015 7.45443e-016 9.19379e-016 0.9159 -9.2044 0.2193 -3.18055e-015 1.98785e-016 1.49089e-015 0.0117 -4.1944 -0.0248 -0.0128827 0.0023346 8.0233e-005 0.0071 -2.3249 -0.0142 1.12292e-007 -6.32874e-006 6.36847e-006 0.6113 -8.7231 -2.0637 -3.18055e-015 1.98785e-016 1.49089e-015 -0.1927 -3.8059 -0.2383 -0.0160274 0.00298512 0.000855616 -0.1091 -2.1688 -0.1362 8.18987e-034 9.93923e-017 -4.72114e-016 -0.6151 -8.0947 -3.5641 -3.18055e-015 1.98785e-016 1.49089e-015 -0.4882 -2.341 -0.6462 -0.0125943 0.00311484 0.00283069 -0.3575 -1.7167 -0.4742 3.18055e-015 3.97569e-016 1.63997e-015 -1.42 -1.8761 1.4223 -3.18055e-015 1.98785e-016 1.49089e-015 -1.1471 -3.4929 2.6334 -3.18055e-015 5.46658e-016 1.71452e-015 -0.823 -2.3 1.6571 -3.18055e-015 7.45443e-016 9.19379e-016 -2.2603 21.606 7.4023 6.2197 3.07584 24.8063 -13.5187 -1.1334 -5.0155 -25.3933 -49.7184 8.49871 0.0994 -28.0499 -0.2431 5.92548 -4.96933 1.90124 -0.0679 -23.3996 -0.1402 32.0882 22.8182 -2.50161 -0.7932 -9.0691 2.5189 -5.81366e-006 1.18352e-005 -1.26098e-005 0.8272 -3.3923 0.5977 -3.18055e-015 -3.18055e-015 -0 0.565 -2.3158 0.4082 -1.13064e-006 -3.64948e-006 -2.6922e-006 -0.916 -9.2044 0.2193 -5.81366e-006 1.18352e-005 -1.26098e-005 -0.0117 -4.1944 -0.0248 0.0129369 0.00231511 -8.10123e-005 -0.0071 -2.3249 -0.0142 -1.48941e-006 1.09641e-007 7.94607e-007 -0.6113 -8.7231 -2.0637 -5.81366e-006 1.18352e-005 -1.26098e-005 0.1927 -3.8059 -0.2383 0.0163682 0.00302835 -0.000870059 0.1091 -2.1688 -0.1362 9.54166e-015 4.77083e-015 -3.18055e-015 0.6151 -8.0947 -3.564 -5.81366e-006 1.18352e-005 -1.26098e-005 0.4882 -2.341 -0.6462 0.0146572 0.00368192 -0.00326864 0.3574 -1.7166 -0.4742 -3.58875e-006 -8.82865e-006 -5.44143e-006 1.4199 -1.8761 1.4221 -5.81366e-006 1.18352e-005 -1.26098e-005 1.1472 -3.4929 2.6336 -3.18055e-015 -3.18055e-015 -0 0.8229 -2.3 1.6571 -1.13064e-006 -3.64948e-006 -2.6922e-006 -9.412 3.9771 -0.7758 -58.394 -32.4375 -24.406 -0.7531 -40.938 1.77636e-015 179.936 44.156 175.044 1.77636e-015 -40.1986 0 -2.02932 12.9087 -3.1045 0 -4.4182 9.239 4.52937e-006 1.71735e-006 -1.83372e-006 9.4119 3.9773 -0.7758 47.6051 -31.9095 13.3771 0.7532 -40.9383 0 -179.952 40.8118 -174.849 -3.55271e-015 -40.1986 0 1.95763 -4.3377 3.5526 3.55271e-015 -4.4182 9.239 -5.74991e-006 7.64127e-006 -8.92954e-006 
15.8864 -1.2267 20.8325 -180 -64.9956 -180 0 8.7983 -4.7612 0 20.7998 -0 0 8.0291 0.4195 0 41.5997 -0 0 9.9351 -2.2114 0 41.5994 -0 0 22.3885 -0.4656 0 30.9973 -0 -0.0001 12.643 3.4389 -0 -63.8687 -0 2.2603 21.606 7.4023 -8.00298e-008 -0.00183968 -12.5014 13.5163 -1.1332 -5.0146 10.4372 9.20211 22.8231 -0.0995 -28.05 -0.2431 -52.0661 -75.1824 -44.332 0.0679 -23.3996 -0.1402 24.6582 -4.16382 1.68521 0.7932 -9.069 2.5189 -3.18055e-015 1.98785e-016 1.49089e-015 -0.8272 -3.3923 0.5977 -3.18055e-015 5.46658e-016 1.71452e-015 -0.5649 -2.3158 0.4082 -3.18055e-015 7.45443e-016 9.19379e-016 0.9159 -9.2044 0.2193 -3.18055e-015 1.98785e-016 1.49089e-015 0.0117 -4.1944 -0.0248 -0.0128827 0.0023346 8.0233e-005 0.0071 -2.3249 -0.0142 1.12292e-007 -6.32874e-006 6.36847e-006 0.6113 -8.7231 -2.0637 -3.18055e-015 1.98785e-016 1.49089e-015 -0.1927 -3.8059 -0.2383 -0.0160351 0.00298325 0.000854713 -0.1091 -2.1688 -0.1362 4.63105e-006 1.32859e-006 1.73492e-006 -0.6151 -8.0947 -3.5641 -3.18055e-015 1.98785e-016 1.49089e-015 -0.4882 -2.341 -0.6462 -0.0125973 0.00311449 0.00283578 -0.3575 -1.7167 -0.4742 -6.36111e-015 -4.96962e-017 -1.04362e-015 -1.42 -1.8761 1.4223 -3.18055e-015 1.98785e-016 1.49089e-015 -1.1471 -3.4929 2.6334 -3.18055e-015 5.46658e-016 1.71452e-015 -0.823 -2.3 1.6571 -3.18055e-015 7.45443e-016 9.19379e-016 -2.2603 21.606 7.4023 6.60765 3.25466 24.8392 -13.5187 -1.1334 -5.0155 -25.2512 -49.2562 8.61215 0.0994 -28.0499 -0.2431 5.92558 -4.96943 1.90124 -0.0679 -23.3996 -0.1402 33.6356 24.2209 -1.1692 -0.7932 -9.0691 2.5189 -1.74241e-006 -7.6381e-006 1.06261e-005 0.8272 -3.3923 0.5977 1.51846e-006 -2.83724e-006 -7.4699e-007 0.565 -2.3158 0.4082 5.57991e-007 3.22871e-006 1.38643e-006 -0.916 -9.2044 0.2193 -1.74241e-006 -7.6381e-006 1.06261e-005 -0.0117 -4.1944 -0.0248 0.0129042 0.00231689 -8.95913e-005 -0.0071 -2.3249 -0.0142 -1.85417e-006 7.82444e-006 -1.05186e-005 -0.6113 -8.7231 -2.0637 -1.74241e-006 -7.6381e-006 1.06261e-005 0.1927 -3.8059 -0.2383 0.0162907 0.00305735 -0.000892912 0.1091 -2.1688 -0.1362 -2.83275e-006 -1.35671e-005 9.30585e-006 0.6151 -8.0947 -3.564 -1.74241e-006 -7.6381e-006 1.06261e-005 0.4882 -2.341 -0.6462 0.0145887 0.00368889 -0.00327778 0.3574 -1.7166 -0.4742 -4.26422e-007 7.18093e-006 2.06705e-006 1.4199 -1.8761 1.4221 -1.74241e-006 -7.6381e-006 1.06261e-005 1.1472 -3.4929 2.6336 1.51846e-006 -2.83724e-006 -7.4699e-007 0.8229 -2.3 1.6571 5.57991e-007 3.22871e-006 1.38643e-006 -9.412 3.9771 -0.7758 -59.7937 -32.5148 -26.3854 -0.7531 -40.938 0 179.932 43.0438 174.922 1.77636e-015 -40.1986 0 -1.98927 12.8214 -3.193 0 -4.4182 9.239 3.18055e-015 1.16558e-006 -6.36111e-015 9.4119 3.9773 -0.7758 48.4693 -31.8478 14.6164 0.7532 -40.9383 3.55271e-015 -179.95 39.3523 -174.65 0 -40.1986 0 1.93691 -4.49377 3.68724 -3.55271e-015 -4.4182 9.239 -4.22941e-006 6.92154e-008 -2.25233e-006 
